# AST/ASF file generated using VICON BodyLanguage
# -----------------------------------------------
:version 1.10
:name VICON
:units
  mass 1.0
  length 0.45
  angle deg
:documentation
   .ast/.asf automatically generated from VICON data using
   VICON BodyBuilder and BodyLanguage model FoxedUp or BRILLIANT.MOD
:root
   order TX TY TZ RX RY RZ
   axis XYZ
   position 0 0 0  
   orientation 0 0 0 
:bonedata
  begin
     id 1 
     name lhipjoint
     direction 0.645893 -0.654526 0.392961 
     length 2.38111 
     axis 0 0 0  XYZ
  end
  begin
     id 2 
     name lfemur
     direction 0.34202 -0.939693 0  
     length 6.6822  
     axis 0 0 20  XYZ
    dof rx ry rz
    limits (-160.0 20.0)
           (-70.0 70.0)
           (-60.0 70.0)
  end
  begin
     id 3 
     name ltibia
     direction 0.34202 -0.939693 0   
     length 6.93904   
     axis 0 0 20   XYZ
    dof rx
    limits (-10.0 170.0)
  end
  begin
     id 4 
     name lfoot
     direction 0.0694967 -0.190941 0.979138   
     length 2.13616   
     axis -90 7.62852e-016 20   XYZ
    dof rx rz
    limits (-45.0 90.0)
           (-70.0 20.0)
  end
  begin
     id 5 
     name ltoes
     direction 1.535e-011 -4.2202e-011 1   
     length 1.07536   
     axis -90 7.62852e-016 20   XYZ
    dof rx
    limits (-90.0 20.0)
  end
  begin
     id 6 
     name rhipjoint
     direction -0.700219 -0.612087 0.367481   
     length 2.54621  
     axis 0 0 0  XYZ 
  end
  begin
     id 7 
     name rfemur
     direction -0.34202 -0.939693 0   
     length 6.55353   
     axis 0 0 -20   XYZ
    dof rx ry rz
    limits (-160.0 20.0)
           (-70.0 70.0)
           (-70.0 60.0)
  end
  begin
     id 8 
     name rtibia
     direction -0.34202 -0.939693 0   
     length 6.8736   
     axis 0 0 -20   XYZ
    dof rx
    limits (-10.0 170.0)
 end
 begin
     id 9 
     name rfoot
     direction -0.0679995 -0.186827 0.980037   
     length 2.1218  
     axis -90 -7.62852e-016 -20   XYZ
    dof rx rz
    limits (-45.0 90.0)
           (-20.0 70.0)
  end
  begin
     id 10 
     name rtoes
     direction -1.53589e-011 -4.21772e-011 1   
     length 1.06864   
     axis -90 -7.62852e-016 -20   XYZ
    dof rx
    limits (-90.0 20.0)
  end
  begin
     id 11 
     name lowerback
     direction -0.0416607 0.996347 -0.0745409   
     length 2.12205   
     axis 0 0 0   XYZ
    dof rx ry rz
    limits (-20.0 45.0)
           (-30.0 30.0)
           (-30.0 30.0)
  end
  begin
     id 12 
     name upperback
     direction -0.000153993 0.999276 -0.0380568   
     length 2.12759   
     axis 0 0 0   XYZ
    dof rx ry rz
    limits (-20.0 45.0)
           (-30.0 30.0)
           (-30.0 30.0)
  end
  begin
     id 13 
     name thorax
     direction 0.0187671 0.999821 -0.00241421   
     length 2.13704   
     axis 0 0 0   XYZ
    dof rx ry rz
    limits (-20.0 45.0)
           (-30.0 30.0)
           (-30.0 30.0)
  end
  begin
     id 14 
     name lowerneck
     direction 0.0268157 0.964865 0.261374   
     length 1.65253   
     axis 0 0 0   XYZ
    dof rx ry rz
    limits (-20.0 45.0)
           (-30.0 30.0)
           (-30.0 30.0)
  end
  begin
     id 15 
     name upperneck
     direction 0.00263774 0.939908 -0.341418   
     length 1.72375   
     axis 0 0 0   XYZ
    dof rx ry rz
    limits (-20.0 45.0)
           (-30.0 30.0)
           (-30.0 30.0)
  end
  begin
     id 16
     name head
     direction -0.00526001 0.989001 -0.147818  
     length 1.74878  
     axis 0 0 0   XYZ
    dof rx ry rz
    limits (-20.0 45.0)
           (-30.0 30.0)
           (-30.0 30.0)
  end
  begin
     id 17 
     name lclavicle
     direction 0.881214 0.461162 -0.103884  
     length 3.25108  
     axis 0 0 0   XYZ
    dof ry rz
    limits (-20.0 10.0)
           (0.0 20.0)
  end
  begin
     id 18 
     name lhumerus
     direction 1 -4.4899e-011 3.38092e-027   
     length 4.87408   
     axis 180 -30 -90   XYZ
    dof rx ry rz
    limits (-60.0 90.0)
           (-90.0 90.0)
           (-90.0 90.0)
  end
  begin
     id 19
     name lradius
     direction 1 -4.48931e-011 9.96288e-027   
     length 2.76729   
     axis 180 -30 -90   XYZ
    dof rx
    limits (-10.0 170.0)
  end
  begin
     id 20
     name lwrist
     direction 1 -4.4896e-011 1.50617e-026   
     length 1.38364   
     axis -9.31234e-015 90 90   XYZ
    dof ry
    limits (-180.0 0.0)
 end
  begin
     id 21 
     name lhand
     direction 1 -4.49038e-011 3.01286e-026   
     length 0.98922   
     axis -1.92217e-014 90 90   XYZ
    dof rx rz
    limits (-90.0 90.0)
           (-45.0 45.0)
  end
  begin
     id 22 
     name lfingers
     direction 1 -4.49051e-011 6.02588e-026   
     length 0.797535   
     axis -3.84436e-014 90 90   XYZ
    dof rx
    limits (0.0 90.0)
  end
  begin
     id 23
     name lthumb
     direction 0.707107 -6.34901e-011 0.707107   
     length 1.14511   
     axis -90 45 2.19363e-014   XYZ
    dof rx rz
    limits (-45.0 45.0)
           (-45.0 45.0)
  end
  begin
     id 24 
     name rclavicle
     direction -0.893894 0.441652 -0.0767889   
     length 3.29361  
     axis 0 0 0   XYZ 
    dof ry rz
    limits (-10.0 20.0)
           (-20.0 0.0)
  end
  begin
     id 25 
     name rhumerus
     direction -1 -4.48945e-011 8.0491e-028  
     length 4.71404   
     axis 180 30 90   XYZ
    dof rx ry rz
    limits (-90.0 60.0)
           (-90.0 90.0)
           (-90.0 90.0)
  end
  begin
     id 26 
     name rradius
     direction -1 -4.48986e-011 9.27795e-027   
     length 2.83468   
     axis 180 30 90   XYZ
    dof rx
    limits (-10.0 170.0)
  end
  begin
     id 27 
     name rwrist
     direction -1 -4.49029e-011 1.5064e-026   
     length 1.41734   
     axis -9.31234e-015 -90 -90   XYZ
    dof ry
    limits (-180.0 0.0)
  end
  begin
     id 28
     name rhand
     direction -1 -4.48857e-011 3.01165e-026   
     length 0.868195   
     axis -1.92217e-014 -90 -90   XYZ
    dof rx rz
    limits (-90.0 90.0)
           (-45.0 45.0)
  end
  begin
     id 29
     name rfingers
     direction -1 -4.49048e-011 6.02585e-026   
     length 0.699961   
     axis -3.84436e-014 -90 -90   XYZ
    dof rx
    limits (0.0 90.0)
  end
  begin
     id 30
     name rthumb
     direction -0.707107 -6.34854e-011 0.707107   
     length 1.00501   
     axis -90 -45 -2.19363e-014   XYZ
    dof rx rz
    limits (-45.0 45.0)
           (-45.0 45.0)
  end
:hierarchy
  begin
    root lhipjoint rhipjoint lowerback
    lhipjoint lfemur
    lfemur ltibia
    ltibia lfoot
    lfoot ltoes
    rhipjoint rfemur
    rfemur rtibia
    rtibia rfoot
    rfoot rtoes
    lowerback upperback
    upperback thorax
    thorax lowerneck lclavicle rclavicle
    lowerneck upperneck
    upperneck head
    lclavicle lhumerus
    lhumerus lradius
    lradius lwrist
    lwrist lhand lthumb
    lhand lfingers
    rclavicle rhumerus
    rhumerus rradius
    rradius rwrist
    rwrist rhand rthumb
    rhand rfingers
  end

#!OML:ASF H:\ManfredObstacles\Project 1\Capture day 2\Session 1\male.ASF
:FULLY-SPECIFIED
:DEGREES
231
root -0.803485 15.7113 26.3756 -171.607 -3.62753 175.87
lowerback -1.84612 0.518032 -6.71633
upperback 0.401537 0.78291 -1.71072
thorax 1.38156 0.303113 2.02206
lowerneck -36.3723 -0.200338 4.20812
upperneck 38.627 -5.33938 0.596628
head 21.9302 -1.68362 -2.12865
rclavicle -1.04859e-014 -2.10712e-014
rhumerus -43.5277 -28.8222 -68.6835
rradius 25.4739
rwrist 36.4855
rhand -0.699109 -7.82276
rfingers 7.12502
rthumb 24.9206 -36.218
lclavicle -1.04859e-014 -2.10712e-014
lhumerus -27.5267 9.11386 81.2352
lradius 19.6078
lwrist -49.5322
lhand 4.34257 6.51754
lfingers 7.12502
lthumb 29.7427 34.1511
rfemur -38.2113 -1.55005 17.5983
rtibia 51.0964
rfoot -10.5874 -24.516
rtoes -22.316
lfemur -4.38863 -7.79998 -28.8645
ltibia 17.7918
lfoot -7.10729 20.4967
ltoes -3.29673
232
root -0.801047 15.7144 26.3228 -171.661 -3.75692 175.881
lowerback -1.71172 0.550283 -6.68053
upperback 0.508299 0.81737 -1.75727
thorax 1.41447 0.316678 1.95415
lowerneck -36.504 -0.251744 4.30616
upperneck 38.5718 -5.48449 0.621423
head 21.9209 -1.70908 -2.17049
rclavicle -9.98893e-015 -1.94809e-014
rhumerus -43.7314 -29.2852 -68.4234
rradius 25.3687
rwrist 36.6984
rhand -0.689786 -7.84559
rfingers 7.12502
rthumb 24.9295 -36.2396
lclavicle -9.98893e-015 -1.94809e-014
lhumerus -27.2524 8.19181 81.5774
lradius 19.8248
lwrist -48.8337
lhand 4.30861 6.46428
lfingers 7.12502
lthumb 29.7103 34.1036
rfemur -38.5707 -1.37812 17.4134
rtibia 49.9453
rfoot -9.92093 -24.3321
rtoes -22.4375
lfemur -3.76151 -7.87054 -28.8519
ltibia 17.0939
lfoot -6.91149 20.3938
ltoes -3.4364
233
root -0.798818 15.7165 26.2687 -171.707 -3.86874 175.893
lowerback -1.58766 0.569921 -6.64168
upperback 0.600485 0.835337 -1.79322
thorax 1.43945 0.322734 1.89503
lowerneck -36.5999 -0.291421 4.38353
upperneck 38.5202 -5.59818 0.64543
head 21.9059 -1.72864 -2.20043
rclavicle 2.84759e-014 -3.85642e-014
rhumerus -43.9391 -29.6639 -68.1774
rradius 25.2732
rwrist 36.8693
rhand -0.677831 -7.8824
rfingers 7.12502
rthumb 24.941 -36.2748
lclavicle 2.84759e-014 -3.85642e-014
lhumerus -27.0249 7.31488 81.9089
lradius 20.047
lwrist -48.1921
lhand 4.24929 6.38661
lfingers 7.12502
lthumb 29.6537 34.036
rfemur -38.9073 -1.18715 17.2105
rtibia 48.7442
rfoot -9.25165 -24.1119
rtoes -22.5985
lfemur -3.13202 -7.9325 -28.8434
ltibia 16.3826
lfoot -6.70606 20.2924
ltoes -3.57297
234
root -0.796519 15.718 26.2134 -171.744 -3.9718 175.903
lowerback -1.47249 0.591949 -6.59861
upperback 0.684479 0.856493 -1.83312
thorax 1.46083 0.330603 1.8296
lowerneck -36.6538 -0.339852 4.45006
upperneck 38.4517 -5.71863 0.67792
head 21.8685 -1.75317 -2.22463
rclavicle 8.89561e-015 2.38542e-015
rhumerus -44.1701 -30.043 -67.9221
rradius 25.1792
rwrist 37.0548
rhand -0.674094 -7.90803
rfingers 7.12502
rthumb 24.9446 -36.3
lclavicle 8.89561e-015 2.38542e-015
lhumerus -26.8114 6.41516 82.2413
lradius 20.2776
lwrist -47.551
lhand 4.19642 6.31622
lfingers 7.12502
lthumb 29.6032 33.9746
rfemur -39.2257 -0.98743 16.9923
rtibia 47.5017
rfoot -8.58765 -23.8601
rtoes -22.7583
lfemur -2.49864 -7.99265 -28.8386
ltibia 15.6511
lfoot -6.48408 20.1912
ltoes -3.71521
235
root -0.794055 15.7193 26.1567 -171.766 -4.07295 175.905
lowerback -1.3788 0.592446 -6.57588
upperback 0.751635 0.851124 -1.84894
thorax 1.47845 0.325869 1.7998
lowerneck -36.7096 -0.372611 4.49296
upperneck 38.4009 -5.7926 0.691949
head 21.8448 -1.76762 -2.24262
rclavicle -2.13694e-015 -2.0276e-014
rhumerus -44.4006 -30.3376 -67.6538
rradius 25.0809
rwrist 37.2283
rhand -0.679374 -7.91786
rfingers 7.12502
rthumb 24.9395 -36.3105
lclavicle -2.13694e-015 -2.0276e-014
lhumerus -26.6537 5.60224 82.5783
lradius 20.5276
lwrist -46.9831
lhand 4.13764 6.23357
lfingers 7.12502
lthumb 29.5471 33.9019
rfemur -39.5303 -0.78868 16.7574
rtibia 46.2256
rfoot -7.98363 -23.5794
rtoes -22.9199
lfemur -1.85481 -8.04971 -28.8388
ltibia 14.8775
lfoot -6.24279 20.0747
ltoes -3.85983
236
root -0.791045 15.7204 26.0982 -171.777 -4.17415 175.901
lowerback -1.29245 0.553265 -6.58739
upperback 0.778678 0.793617 -1.82326
thorax 1.46194 0.297278 1.83052
lowerneck -36.6548 -0.385779 4.46401
upperneck 38.3644 -5.79604 0.714804
head 21.8071 -1.77227 -2.22405
rclavicle -5.31749e-015 -9.54166e-015
rhumerus -44.6428 -30.4788 -67.3594
rradius 24.9676
rwrist 37.4098
rhand -0.698764 -7.90723
rfingers 7.12502
rthumb 24.9209 -36.3025
lclavicle -5.31749e-015 -9.54166e-015
lhumerus -26.6063 4.92291 82.9261
lradius 20.8113
lwrist -46.4634
lhand 4.10109 6.16906
lfingers 7.12502
lthumb 29.5122 33.8436
rfemur -39.8163 -0.579744 16.5047
rtibia 44.9228
rfoot -7.44746 -23.2847
rtoes -23.0274
lfemur -1.18462 -8.08731 -28.8399
ltibia 14.0382
lfoot -5.98271 19.9252
ltoes -4.02284
237
root -0.786976 15.7217 26.0373 -171.786 -4.29659 175.893
lowerback -1.22555 0.482793 -6.63087
upperback 0.792951 0.697159 -1.76389
thorax 1.44573 0.249702 1.91313
lowerneck -36.5529 -0.390205 4.377
upperneck 38.3259 -5.74719 0.742412
head 21.7594 -1.76853 -2.17809
rclavicle 3.27995e-015 -3.18055e-015
rhumerus -44.8799 -30.5292 -67.0452
rradius 24.8467
rwrist 37.6037
rhand -0.720726 -7.87329
rfingers 7.12502
rthumb 24.8999 -36.2714
lclavicle 3.27995e-015 -3.18055e-015
lhumerus -26.6085 4.35656 83.2825
lradius 21.101
lwrist -45.9604
lhand 4.0457 6.09974
lfingers 7.12502
lthumb 29.4593 33.7836
rfemur -40.062 -0.374061 16.2429
rtibia 43.6013
rfoot -6.98714 -23.0015
rtoes -23.0799
lfemur -0.460787 -8.11037 -28.8333
ltibia 13.1068
lfoot -5.70065 19.7236
ltoes -4.20703
